# AST/ASF file generated using VICON BodyLanguage
# -----------------------------------------------
:version 1.10
:name VICON
:units
  mass 1.0
  length 0.45
  angle deg
:documentation
   .ast/.asf automatically generated from VICON data using
   VICON BodyBuilder and BodyLanguage model FoxedUp or BRILLIANT.MOD
:root
   order TX TY TZ RX RY RZ
   axis XYZ
   position 0 0 0  
   orientation 0 0 0 
:bonedata
  begin
     id 1 
     name lhipjoint
     direction 0.693937 -0.600361 0.397515 
     length 2.37164 
     axis 0 0 0  XYZ
  end
  begin
     id 2 
     name lfemur
     direction 0.34202 -0.939693 0  
     length 6.18497  
     axis 0 0 20  XYZ
    dof rx ry rz
    limits (-160.0 20.0)
           (-70.0 70.0)
           (-60.0 70.0)
  end
  begin
     id 3 
     name ltibia
     direction 0.34202 -0.939693 0   
     length 6.91601   
     axis 0 0 20   XYZ
    dof rx
    limits (-10.0 170.0)
  end
  begin
     id 4 
     name lfoot
     direction 0.0978718 -0.2689 0.958182   
     length 1.81453   
     axis -90 7.62852e-016 20   XYZ
    dof rx rz
    limits (-45.0 90.0)
           (-70.0 20.0)
  end
  begin
     id 5 
     name ltoes
     direction 1.53569e-011 -4.21951e-011 1   
     length 0.912052   
     axis -90 7.62852e-016 20   XYZ
    dof rx
    limits (-90.0 20.0)
  end
  begin
     id 6 
     name rhipjoint
     direction -0.643996 -0.637876 0.422354   
     length 2.23216  
     axis 0 0 0  XYZ 
  end
  begin
     id 7 
     name rfemur
     direction -0.34202 -0.939693 0   
     length 6.15404   
     axis 0 0 -20   XYZ
    dof rx ry rz
    limits (-160.0 20.0)
           (-70.0 70.0)
           (-70.0 60.0)
  end
  begin
     id 8 
     name rtibia
     direction -0.34202 -0.939693 0   
     length 6.86744   
     axis 0 0 -20   XYZ
    dof rx
    limits (-10.0 170.0)
 end
 begin
     id 9 
     name rfoot
     direction -0.118701 -0.326127 0.937844   
     length 1.9243  
     axis -90 -7.62852e-016 -20   XYZ
    dof rx rz
    limits (-45.0 90.0)
           (-20.0 70.0)
  end
  begin
     id 10 
     name rtoes
     direction -1.5356e-011 -4.2181e-011 1   
     length 0.958865   
     axis -90 -7.62852e-016 -20   XYZ
    dof rx
    limits (-90.0 20.0)
  end
  begin
     id 11 
     name lowerback
     direction 0.0310826 0.968686 -0.246334   
     length 2.00021   
     axis 0 0 0   XYZ
    dof rx ry rz
    limits (-20.0 45.0)
           (-30.0 30.0)
           (-30.0 30.0)
  end
  begin
     id 12 
     name upperback
     direction -0.0152834 0.999474 -0.0286152   
     length 2.03728   
     axis 0 0 0   XYZ
    dof rx ry rz
    limits (-20.0 45.0)
           (-30.0 30.0)
           (-30.0 30.0)
  end
  begin
     id 13 
     name thorax
     direction -0.0323701 0.996236 0.0804149   
     length 2.16   
     axis 0 0 0   XYZ
    dof rx ry rz
    limits (-20.0 45.0)
           (-30.0 30.0)
           (-30.0 30.0)
  end
  begin
     id 14 
     name lowerneck
     direction 0.0307935 0.982251 0.185027   
     length 1.43558   
     axis 0 0 0   XYZ
    dof rx ry rz
    limits (-20.0 45.0)
           (-30.0 30.0)
           (-30.0 30.0)
  end
  begin
     id 15 
     name upperneck
     direction -0.0927153 0.994775 0.0427454   
     length 1.44603   
     axis 0 0 0   XYZ
    dof rx ry rz
    limits (-20.0 45.0)
           (-30.0 30.0)
           (-30.0 30.0)
  end
  begin
     id 16
     name head
     direction -0.0341265 0.999406 -0.00472033  
     length 1.45931  
     axis 0 0 0   XYZ
    dof rx ry rz
    limits (-20.0 45.0)
           (-30.0 30.0)
           (-30.0 30.0)
  end
  begin
     id 17 
     name lclavicle
     direction 0.820755 0.555306 -0.134151  
     length 2.66075  
     axis 0 0 0   XYZ
    dof ry rz
    limits (-20.0 10.0)
           (0.0 20.0)
  end
  begin
     id 18 
     name lhumerus
     direction 1 -4.48971e-011 5.24853e-027   
     length 5.0546   
     axis -180 -30 -90   XYZ
    dof rx ry rz
    limits (-60.0 90.0)
           (-90.0 90.0)
           (-90.0 90.0)
  end
  begin
     id 19
     name lradius
     direction 1 -4.48971e-011 2.76575e-028   
     length 3.39013   
     axis -180 -30 -90   XYZ
    dof rx
    limits (-10.0 170.0)
  end
  begin
     id 20
     name lwrist
     direction 1 -4.48939e-011 -2.27826e-027   
     length 1.69507   
     axis 2.17013e-015 90 90   XYZ
    dof ry
    limits (-180.0 0.0)
 end
  begin
     id 21 
     name lhand
     direction 1 -4.49009e-011 -4.55652e-027   
     length 0.572425   
     axis 2.90745e-015 90 90   XYZ
    dof rx rz
    limits (-90.0 90.0)
           (-45.0 45.0)
  end
  begin
     id 22 
     name lfingers
     direction 1 -4.48955e-011 -9.11303e-027   
     length 0.461504   
     axis 5.81489e-015 90 90   XYZ
    dof rx
    limits (0.0 90.0)
  end
  begin
     id 23
     name lthumb
     direction 0.707107 -6.34929e-011 0.707107   
     length 0.66263   
     axis -90 45 2.85299e-015   XYZ
    dof rx rz
    limits (-45.0 45.0)
           (-45.0 45.0)
  end
  begin
     id 24 
     name rclavicle
     direction -0.754477 0.632921 -0.173712   
     length 2.73081  
     axis 0 0 0   XYZ 
    dof ry rz
    limits (-10.0 20.0)
           (-20.0 0.0)
  end
  begin
     id 25 
     name rhumerus
     direction -1 -4.48969e-011 5.1496e-027  
     length 5.0701   
     axis -180 30 90   XYZ
    dof rx ry rz
    limits (-90.0 60.0)
           (-90.0 90.0)
           (-90.0 90.0)
  end
  begin
     id 26 
     name rradius
     direction -1 -4.48967e-011 -7.15624e-028   
     length 3.14957   
     axis -180 30 90   XYZ
    dof rx
    limits (-10.0 170.0)
  end
  begin
     id 27 
     name rwrist
     direction -1 -4.48938e-011 -2.27826e-027   
     length 1.57479   
     axis 2.17013e-015 -90 -90   XYZ
    dof ry
    limits (-180.0 0.0)
  end
  begin
     id 28
     name rhand
     direction -1 -4.49008e-011 -4.55652e-027   
     length 0.718191   
     axis 2.90745e-015 -90 -90   XYZ
    dof rx rz
    limits (-90.0 90.0)
           (-45.0 45.0)
  end
  begin
     id 29
     name rfingers
     direction -1 -4.48953e-011 -9.11303e-027   
     length 0.579024   
     axis 5.81489e-015 -90 -90   XYZ
    dof rx
    limits (0.0 90.0)
  end
  begin
     id 30
     name rthumb
     direction -0.707107 -6.34937e-011 0.707107   
     length 0.831366   
     axis -90 -45 -2.85299e-015   XYZ
    dof rx rz
    limits (-45.0 45.0)
           (-45.0 45.0)
  end
:hierarchy
  begin
    root lhipjoint rhipjoint lowerback
    lhipjoint lfemur
    lfemur ltibia
    ltibia lfoot
    lfoot ltoes
    rhipjoint rfemur
    rfemur rtibia
    rtibia rfoot
    rfoot rtoes
    lowerback upperback
    upperback thorax
    thorax lowerneck lclavicle rclavicle
    lowerneck upperneck
    upperneck head
    lclavicle lhumerus
    lhumerus lradius
    lradius lwrist
    lwrist lhand lthumb
    lhand lfingers
    rclavicle rhumerus
    rhumerus rradius
    rradius rwrist
    rwrist rhand rthumb
    rhand rfingers
  end

#!OML:ASF H:\Male1\Project 1\Capture day 1\Session 1\Male1.ASF
:FULLY-SPECIFIED
:DEGREES
68
root -30.5146 14.8864 1.03267 2.47418 86.8379 5.12414
lowerback 5.62718 2.62214 -0.521906
upperback 2.5576 3.51285 -1.76406
thorax -0.438633 1.79007 -1.72381
lowerneck -10.1255 3.04097 6.89742
upperneck 18.5506 3.37402 -0.869474
head 7.51614 2.10904 -1.09291
rclavicle 8.64713e-015 -6.36111e-015
rhumerus -39.112 2.04738 -92.1936
rradius 38.4341
rwrist -23.294
rhand -22.3676 -0.841808
rfingers 7.12502
rthumb 4.05382 -30.783
lclavicle 8.64713e-015 -6.36111e-015
lhumerus -34.5547 -14.3617 91.7993
lradius 30.495
lwrist 1.03863
lhand -20.0009 12.6434
lfingers 7.12502
lthumb 6.33895 42.5285
rfemur -9.26961 14.6227 24.0813
rtibia 34.7107
rfoot -31.8504 -28.7367
rtoes -17.2819
lfemur -8.11596 -16.4699 -23.105
ltibia 33.9504
lfoot -25.8628 23.4999
ltoes -9.38118
69
root -30.5135 14.8859 1.0323 1.21636 86.7953 3.87242
lowerback 5.62806 2.63341 -0.466662
upperback 2.54898 3.53003 -1.74579
thorax -0.445401 1.79865 -1.73715
lowerneck -10.1231 3.05789 6.92478
upperneck 18.5921 3.39574 -0.87661
head 7.53099 2.122 -1.09735
rclavicle -3.40419e-014 2.38542e-015
rhumerus -39.1277 2.00869 -92.2098
rradius 38.4218
rwrist -23.2626
rhand -22.365 -0.878761
rfingers 7.12502
rthumb 4.05635 -30.8199
lclavicle -3.40419e-014 2.38542e-015
lhumerus -34.5756 -14.3511 91.7813
lradius 30.5052
lwrist 1.06733
lhand -19.98 12.5446
lfingers 7.12502
lthumb 6.35914 42.4291
rfemur -9.23657 14.728 24.1705
rtibia 34.6677
rfoot -31.9118 -28.7735
rtoes -17.1733
lfemur -8.11564 -16.4785 -23.0412
ltibia 33.9948
lfoot -25.928 23.5121
ltoes -9.1972
70
root -30.5121 14.8854 1.03201 -0.267473 86.7532 2.39462
lowerback 5.62153 2.64077 -0.399328
upperback 2.54458 3.54284 -1.72222
thorax -0.443443 1.80514 -1.75099
lowerneck -10.1084 3.05874 6.9399
upperneck 18.6262 3.39685 -0.87545
head 7.53996 2.12498 -1.09933
rclavicle 3.77691e-015 1.23246e-014
rhumerus -39.1282 1.98733 -92.2326
rradius 38.4014
rwrist -23.2336
rhand -22.3898 -0.924615
rfingers 7.12502
rthumb 4.03233 -30.8662
lclavicle 3.77691e-015 1.23246e-014
lhumerus -34.5944 -14.3388 91.7584
lradius 30.5258
lwrist 1.11847
lhand -19.9182 12.4411
lfingers 7.12502
lthumb 6.41878 42.3238
rfemur -9.19594 14.8604 24.2809
rtibia 34.6145
rfoot -31.9619 -28.8445
rtoes -17.0918
lfemur -8.11732 -16.4996 -22.9621
ltibia 34.0463
lfoot -26.0069 23.5264
ltoes -8.90739
71
root -30.5103 14.8851 1.03157 -1.64554 86.7144 1.01754
lowerback 5.60158 2.64373 -0.330249
upperback 2.54246 3.55014 -1.70202
thorax -0.431482 1.80897 -1.76814
lowerneck -10.0894 3.05355 6.9547
upperneck 18.6534 3.39095 -0.880052
head 7.54566 2.1239 -1.10395
rclavicle -8.44835e-015 -7.95139e-016
rhumerus -39.1158 1.9821 -92.2639
rradius 38.3748
rwrist -23.2119
rhand -22.4302 -0.965866
rfingers 7.12502
rthumb 3.99337 -30.9082
lclavicle -8.44835e-015 -7.95139e-016
lhumerus -34.6129 -14.336 91.734
lradius 30.5523
lwrist 1.18677
lhand -19.8327 12.3501
lfingers 7.12502
lthumb 6.50135 42.2303
rfemur -9.15602 15.0033 24.3875
rtibia 34.5556
rfoot -31.9776 -28.9472
rtoes -17.0822
lfemur -8.12045 -16.5376 -22.8892
ltibia 34.0956
lfoot -26.0924 23.5535
ltoes -8.5988
72
root -30.508 14.8851 1.0308 -2.79986 86.6808 -0.145258
lowerback 5.56143 2.64225 -0.258624
upperback 2.54201 3.55191 -1.69084
thorax -0.406003 1.81021 -1.7945
lowerneck -10.0775 3.0466 6.97573
upperneck 18.6779 3.38305 -0.897351
head 7.552 2.12094 -1.11387
rclavicle -1.08835e-014 1.39149e-014
rhumerus -39.0906 1.98767 -92.3053
rradius 38.3406
rwrist -23.1992
rhand -22.4746 -0.981954
rfingers 7.12502
rthumb 3.95052 -30.9251
lclavicle -1.08835e-014 1.39149e-014
lhumerus -34.6298 -14.3444 91.7087
lradius 30.578
lwrist 1.25068
lhand -19.742 12.3198
lfingers 7.12502
lthumb 6.58885 42.1973
rfemur -9.12195 15.1439 24.4783
rtibia 34.4932
rfoot -31.947 -29.0732
rtoes -17.1538
lfemur -8.12548 -16.5973 -22.8313
ltibia 34.1368
lfoot -26.1833 23.6012
ltoes -8.35622
73
root -30.5052 14.8856 1.0297 -3.68638 86.6519 -1.05207
lowerback 5.50385 2.63971 -0.185641
upperback 2.54019 3.55242 -1.69217
thorax -0.371385 1.81098 -1.83347
lowerneck -10.0794 3.03669 7.00695
upperneck 18.7037 3.36984 -0.924899
head 7.56131 2.11509 -1.12916
rclavicle 4.08502e-014 -1.19271e-015
rhumerus -39.06 1.98864 -92.3549
rradius 38.3022
rwrist -23.1915
rhand -22.5164 -0.960139
rfingers 7.12502
rthumb 3.91007 -30.904
lclavicle 4.08502e-014 -1.19271e-015
lhumerus -34.6478 -14.3678 91.6845
lradius 30.6023
lwrist 1.28877
lhand -19.6696 12.3902
lfingers 7.12502
lthumb 6.65882 42.2655
rfemur -9.09441 15.2836 24.5488
rtibia 34.4257
rfoot -31.8974 -29.206
rtoes -17.242
lfemur -8.13616 -16.6777 -22.7911
ltibia 34.171
lfoot -26.2802 23.6685
ltoes -8.20827
74
root -30.5023 14.8865 1.02838 -4.54591 86.6197 -1.94162
lowerback 5.43902 2.63932 -0.102958
upperback 2.53368 3.55606 -1.69984
thorax -0.336456 1.8134 -1.88427
lowerneck -10.0908 3.02467 7.04196
upperneck 18.7288 3.35243 -0.954524
head 7.57205 2.10717 -1.14605
rclavicle -9.59136e-015 2.78299e-015
rhumerus -39.0334 1.98127 -92.4107
rradius 38.2675
rwrist -23.1874
rhand -22.5589 -0.922579
rfingers 7.12502
rthumb 3.86905 -30.8672
lclavicle -9.59136e-015 2.78299e-015
lhumerus -34.6728 -14.3985 91.6637
lradius 30.6255
lwrist 1.28825
lhand -19.6187 12.528
lfingers 7.12502
lthumb 6.7079 42.4018
rfemur -9.07 15.4293 24.6166
rtibia 34.3489
rfoot -31.8466 -29.3358
rtoes -17.3219
lfemur -8.1549 -16.7662 -22.7515
ltibia 34.2045
lfoot -26.3816 23.748
ltoes -8.15345
75
root -30.4993 14.8875 1.02708 -5.79823 86.5669 -3.22322
lowerback 5.38293 2.64237 0.00299903
upperback 2.52265 3.56495 -1.69913
thorax -0.309958 1.81843 -1.94035
lowerneck -10.1068 3.01438 7.07254
upperneck 18.7484 3.33787 -0.986339
head 7.58186 2.09985 -1.16264
rclavicle 2.75814e-014 -7.15625e-015
rhumerus -39.0174 1.98324 -92.4718
rradius 38.2443
rwrist -23.194
rhand -22.6087 -0.892081
rfingers 7.12502
rthumb 3.82099 -30.8376
lclavicle 2.75814e-014 -7.15625e-015
lhumerus -34.707 -14.4123 91.6484
lradius 30.6443
lwrist 1.24586
lhand -19.6031 12.6845
lfingers 7.12502
lthumb 6.72297 42.5578
rfemur -9.03676 15.5924 24.7148
rtibia 34.2593
rfoot -31.7896 -29.4567
rtoes -17.3917
lfemur -8.17442 -16.8476 -22.6842
ltibia 34.2457
lfoot -26.4933 23.8328
ltoes -8.15255
76
root -30.4964 14.8884 1.02596 -7.48096 86.4868 -4.92637
lowerback 5.34474 2.64773 0.127151
upperback 2.50974 3.57735 -1.68126
thorax -0.295158 1.82511 -1.99017
lowerneck -10.121 3.01033 7.08868
upperneck 18.7553 3.33422 -1.0188
head 7.58728 2.09621 -1.1761
rclavicle -4.57205e-015 7.15625e-015
rhumerus -39.0121 2.00564 -92.5309
rradius 38.2348
rwrist -23.2064
rhand -22.6578 -0.869596
rfingers 7.12502
rthumb 3.77352 -30.8159
lclavicle -4.57205e-015 7.15625e-015
lhumerus -34.7457 -14.3879 91.6407
lradius 30.6547
lwrist 1.17398
lhand -19.6159 12.8255
lfingers 7.12502
lthumb 6.7106 42.6992
rfemur -8.98828 15.7732 24.8506
rtibia 34.1572
rfoot -31.7398 -29.5578
rtoes -17.4148
lfemur -8.18973 -16.9122 -22.5837
ltibia 34.2999
lfoot -26.6215 23.9106
ltoes -8.15208
77
root -30.4937 14.889 1.02507 -9.44355 86.3804 -6.89726
lowerback 5.32513 2.65372 0.259569
upperback 2.49786 3.59076 -1.64411
thorax -0.290297 1.83211 -2.02584
lowerneck -10.1171 3.01223 7.08493
upperneck 18.7328 3.34377 -1.05544
head 7.57995 2.09631 -1.18678
rclavicle 5.35228e-014 -2.10712e-014
rhumerus -39.0111 2.04718 -92.5801
rradius 38.2337
rwrist -23.2121
rhand -22.6916 -0.859645
rfingers 7.12502
rthumb 3.74091 -30.8066
lclavicle 5.35228e-014 -2.10712e-014
lhumerus -34.7829 -14.3196 91.6414
lradius 30.6538
lwrist 1.09058
lhand -19.6499 12.9227
lfingers 7.12502
lthumb 6.67783 42.7974
rfemur -8.92739 15.9597 25.0163
rtibia 34.0494
rfoot -31.7071 -29.6376
rtoes -17.4029
lfemur -8.1972 -16.9552 -22.4558
ltibia 34.3641
lfoot -26.7653 23.9712
ltoes -8.11952
78
root -30.491 14.8892 1.02447 -11.3584 86.2532 -8.80607
lowerback 5.32275 2.66348 0.383835
upperback 2.48984 3.60886 -1.5964
thorax -0.29199 1.84135 -2.0472
lowerneck -10.0729 3.00862 7.07175
upperneck 18.6665 3.35121 -1.09914
head 7.55076 2.09323 -1.19922
rclavicle -3.31473e-014 1.78906e-014
rhumerus -39.0088 2.09397 -92.619
rradius 38.24
rwrist -23.2106
rhand -22.7034 -0.870483
rfingers 7.12502
rthumb 3.72953 -30.8176
lclavicle -3.31473e-014 1.78906e-014
lhumerus -34.8133 -14.2321 91.6498
lradius 30.6404
lwrist 1.01461
lhand -19.7018 12.9593
lfingers 7.12502
lthumb 6.62768 42.8356
rfemur -8.85982 16.1411 25.1908
rtibia 33.9494
rfoot -31.6892 -29.7021
rtoes -17.4179
lfemur -8.1901 -16.9724 -22.3204
ltibia 34.4283
lfoot -26.91 24.0158
ltoes -8.03819
79
root -30.4885 14.8891 1.024 -12.7042 86.1212 -10.1347
lowerback 5.32736 2.67928 0.47316
upperback 2.48909 3.63376 -1.55507
thorax -0.291531 1.85396 -2.05614
lowerneck -10.0063 3.0041 7.06448
upperneck 18.5666 3.35871 -1.15001
head 7.50681 2.08922 -1.21542
rclavicle -2.74323e-014 -3.18055e-015
rhumerus -38.9985 2.13167 -92.65
rradius 38.2528
rwrist -23.2032
rhand -22.6874 -0.897639
rfingers 7.12502
rthumb 3.74502 -30.8445
lclavicle -2.74323e-014 -3.18055e-015
lhumerus -34.8272 -14.1548 91.6618
lradius 30.6137
lwrist 0.962466
lhand -19.7579 12.9301
lfingers 7.12502
lthumb 6.5735 42.8081
rfemur -8.79747 16.2959 25.3291
rtibia 33.8713
rfoot -31.6969 -29.739
rtoes -17.5015
lfemur -8.16763 -16.9591 -22.2161
ltibia 34.4801
lfoot -27.0342 24.0461
ltoes -7.94935
80
root -30.486 14.8889 1.02342 -13.2601 86.0021 -10.6677
lowerback 5.32986 2.69677 0.513252
upperback 2.4964 3.65901 -1.52826
thorax -0.283671 1.86676 -2.05215
lowerneck -9.92484 3.00331 7.06516
upperneck 18.451 3.37081 -1.20079
head 7.45549 2.08774 -1.23268
rclavicle -4.72114e-014 1.59028e-015
rhumerus -38.9751 2.16459 -92.6745
rradius 38.2638
rwrist -23.1906
rhand -22.6465 -0.92563
rfingers 7.12502
rthumb 3.78446 -30.8718
lclavicle -4.72114e-014 1.59028e-015
lhumerus -34.8241 -14.094 91.676
lradius 30.5804
lwrist 0.935905
lhand -19.8049 12.8745
lfingers 7.12502
lthumb 6.52817 42.7539
rfemur -8.75043 16.4004 25.401
rtibia 33.8251
rfoot -31.7223 -29.7349
rtoes -17.6884
lfemur -8.13243 -16.9148 -22.1659
ltibia 34.5103
lfoot -27.1228 24.0622
ltoes -7.89477
81
root -30.4835 14.8887 1.02252 -13.0753 85.9084 -10.4608
lowerback 5.32641 2.71151 0.505272
upperback 2.50939 3.67867 -1.5187
thorax -0.268783 1.87674 -2.03828
lowerneck -9.84957 3.00953 7.06833
upperneck 18.3414 3.38991 -1.2422
head 7.40758 2.09078 -1.24646
rclavicle 6.80837e-015 -4.37326e-015
rhumerus -38.9379 2.19734 -92.6965
rradius 38.2667
rwrist -23.1768
rhand -22.5985 -0.937956
rfingers 7.12502
rthumb 3.83086 -30.8833
lclavicle 6.80837e-015 -4.37326e-015
lhumerus -34.8125 -14.0581 91.6947
lradius 30.5567
lwrist 0.933612
lhand -19.8688 12.6774
lfingers 7.12502
lthumb 6.46646 42.5587
rfemur -8.72676 16.4393 25.3978
rtibia 33.8154
rfoot -31.7631 -29.6771
rtoes -17.9634
lfemur -8.09092 -16.8467 -22.1729
ltibia 34.5144
lfoot -27.1643 24.0696
ltoes -7.86533
82
root -30.4811 14.8886 1.02102 -12.3068 85.8458 -9.68492
lowerback 5.30928 2.71779 0.461874
upperback 2.52324 3.68553 -1.52667
thorax -0.24697 1.88027 -2.02119
lowerneck -9.79739 3.02896 7.06437
upperneck 18.2528 3.42289 -1.26267
head 7.37095 2.10224 -1.25046
rclavicle -3.54334e-014 1.66979e-014
rhumerus -38.8835 2.23631 -92.7237
rradius 38.2515
rwrist -23.1588
rhand -22.5617 -0.930107
rfingers 7.12502
rthumb 3.86638 -30.8748
lclavicle -3.54334e-014 1.66979e-014
lhumerus -34.7987 -14.0495 91.7156
lradius 30.553
lwrist 0.960997
lhand -19.9407 12.4004
lfingers 7.12502
lthumb 6.39706 42.2838
rfemur -8.74074 16.405 25.321
rtibia 33.8413
rfoot -31.8406 -29.5462
rtoes -18.261
lfemur -8.06024 -16.7659 -22.2257
ltibia 34.4928
lfoot -27.1575 24.0682
ltoes -7.8469
